<mxfile host="app.diagrams.net" modified="2023-10-20T10:06:35.476Z" agent="Mozilla/5.0 (Windows NT 10.0; Win64; x64) AppleWebKit/537.36 (KHTML, like Gecko) Chrome/117.0.0.0 Safari/537.36" etag="PJ_K-bPjhjFtVzAski24" version="22.0.5" type="github">
  <diagram name="第 1 页" id="JAwsaHjkYCwxBetElqYL">
    <mxGraphModel dx="1420" dy="754" grid="1" gridSize="10" guides="1" tooltips="1" connect="1" arrows="1" fold="1" page="1" pageScale="1" pageWidth="827" pageHeight="1169" math="0" shadow="0">
      <root>
        <mxCell id="0" />
        <mxCell id="1" parent="0" />
        <mxCell id="t8-98j5JI67h9mpbq_v_-19" value="" style="line;strokeWidth=2;html=1;fillColor=#dae8fc;strokeColor=#6c8ebf;" parent="1" vertex="1">
          <mxGeometry x="80" y="284" width="400" height="10" as="geometry" />
        </mxCell>
        <mxCell id="t8-98j5JI67h9mpbq_v_-20" value="" style="line;strokeWidth=2;html=1;direction=south;fillColor=#dae8fc;strokeColor=#6c8ebf;" parent="1" vertex="1">
          <mxGeometry x="275" y="290" width="10" height="10" as="geometry" />
        </mxCell>
        <mxCell id="t8-98j5JI67h9mpbq_v_-23" value="" style="line;strokeWidth=2;html=1;direction=south;fillColor=#dae8fc;strokeColor=#6c8ebf;" parent="1" vertex="1">
          <mxGeometry x="76" y="289" width="10" height="10" as="geometry" />
        </mxCell>
        <mxCell id="t8-98j5JI67h9mpbq_v_-24" value="" style="line;strokeWidth=2;html=1;direction=south;fillColor=#dae8fc;strokeColor=#6c8ebf;" parent="1" vertex="1">
          <mxGeometry x="474" y="289" width="10" height="10" as="geometry" />
        </mxCell>
        <mxCell id="t8-98j5JI67h9mpbq_v_-25" value="" style="line;strokeWidth=2;html=1;direction=south;fillColor=#dae8fc;strokeColor=#6c8ebf;" parent="1" vertex="1">
          <mxGeometry x="175" y="289" width="10" height="10" as="geometry" />
        </mxCell>
        <mxCell id="t8-98j5JI67h9mpbq_v_-26" value="" style="line;strokeWidth=2;html=1;direction=south;fillColor=#dae8fc;strokeColor=#6c8ebf;" parent="1" vertex="1">
          <mxGeometry x="375" y="289" width="10" height="10" as="geometry" />
        </mxCell>
        <mxCell id="BKH-1MzGALKTUqeunkEW-1" value="Text" style="text;html=1;strokeColor=none;fillColor=none;align=center;verticalAlign=middle;whiteSpace=wrap;rounded=0;" parent="1" vertex="1">
          <mxGeometry x="380" y="470" width="60" height="30" as="geometry" />
        </mxCell>
      </root>
    </mxGraphModel>
  </diagram>
</mxfile>
